<svg width="17" height="14" viewBox="0 0 17 14" fill="none" xmlns="http://www.w3.org/2000/svg">
<path d="M14.3034 8.95719C14.1426 8.79641 13.9246 8.70608 13.6972 8.70608C13.4698 8.70608 13.2517 8.79641 13.0909 8.95719C12.9302 9.11798 12.8398 9.33605 12.8398 9.56343C12.8398 9.79081 12.9302 10.0089 13.0909 10.1697L13.3386 10.4173H11.9895C11.0836 10.4173 10.2149 10.0575 9.57438 9.41693C8.93386 8.77641 8.57402 7.90768 8.57402 7.00185C8.57402 6.09602 8.93386 5.22729 9.57438 4.58677C10.2149 3.94625 11.0836 3.58641 11.9895 3.58641H13.3471L13.0909 3.83403C13.0109 3.91341 12.9474 4.00785 12.904 4.1119C12.8607 4.21595 12.8384 4.32755 12.8384 4.44027C12.8384 4.55299 12.8607 4.6646 12.904 4.76865C12.9474 4.8727 13.0109 4.96714 13.0909 5.04651C13.1707 5.12565 13.2653 5.18826 13.3694 5.23075C13.4734 5.27324 13.5848 5.29478 13.6972 5.29413C13.8096 5.29478 13.9209 5.27324 14.025 5.23075C14.129 5.18826 14.2236 5.12565 14.3034 5.04651L16.0111 3.33879C16.0903 3.25901 16.1529 3.16439 16.1954 3.06036C16.2379 2.95632 16.2594 2.84493 16.2588 2.73255C16.2594 2.62018 16.2379 2.50878 16.1954 2.40475C16.1529 2.30072 16.0903 2.2061 16.0111 2.12631L14.3034 0.418593C14.2238 0.338981 14.1293 0.275829 14.0253 0.232743C13.9213 0.189657 13.8098 0.16748 13.6972 0.16748C13.4698 0.16748 13.2517 0.257809 13.0909 0.418593C12.9302 0.579378 12.8398 0.79745 12.8398 1.02483C12.8398 1.25222 12.9302 1.47029 13.0909 1.63107L13.3386 1.87869H11.9895C11.1435 1.87931 10.3109 2.0894 9.56593 2.49019C8.82096 2.89098 8.18683 3.47001 7.72016 4.17558C7.25348 3.47001 6.61935 2.89098 5.87439 2.49019C5.12942 2.0894 4.2968 1.87931 3.45086 1.87869H1.74314C1.51668 1.87869 1.2995 1.96865 1.13937 2.12878C0.979242 2.28891 0.889282 2.5061 0.889282 2.73255C0.889282 2.95901 0.979242 3.17619 1.13937 3.33632C1.2995 3.49645 1.51668 3.58641 1.74314 3.58641H3.45086C4.35669 3.58641 5.22542 3.94625 5.86594 4.58677C6.50646 5.22729 6.8663 6.09602 6.8663 7.00185C6.8663 7.90768 6.50646 8.77641 5.86594 9.41693C5.22542 10.0575 4.35669 10.4173 3.45086 10.4173H1.74314C1.51668 10.4173 1.2995 10.5072 1.13937 10.6674C0.979242 10.8275 0.889282 11.0447 0.889282 11.2711C0.889282 11.4976 0.979242 11.7148 1.13937 11.8749C1.2995 12.035 1.51668 12.125 1.74314 12.125H3.45086C4.2968 12.1244 5.12942 11.9143 5.87439 11.5135C6.61935 11.1127 7.25348 10.5337 7.72016 9.82813C8.18683 10.5337 8.82096 11.1127 9.56593 11.5135C10.3109 11.9143 11.1435 12.1244 11.9895 12.125H13.3471L13.0909 12.3726C13.0109 12.452 12.9474 12.5464 12.904 12.6505C12.8607 12.7545 12.8384 12.8661 12.8384 12.9789C12.8384 13.0916 12.8607 13.2032 12.904 13.3072C12.9474 13.4113 13.0109 13.5057 13.0909 13.5851C13.1707 13.6642 13.2653 13.7269 13.3694 13.7693C13.4734 13.8118 13.5848 13.8334 13.6972 13.8327C13.8096 13.8334 13.9209 13.8118 14.025 13.7693C14.129 13.7269 14.2236 13.6642 14.3034 13.5851L16.0111 11.8774C16.0903 11.7976 16.1529 11.703 16.1954 11.599C16.2379 11.4949 16.2594 11.3835 16.2588 11.2711C16.2594 11.1588 16.2379 11.0474 16.1954 10.9433C16.1529 10.8393 16.0903 10.7447 16.0111 10.6649L14.3034 8.95719Z" fill="#BAA8ED"/>
</svg>
