<svg width="24" height="24" viewBox="0 0 24 24" fill="none" xmlns="http://www.w3.org/2000/svg">
<g clip-path="url(#clip0_102_70)">
<path d="M13.26 3.30007C13.4165 3.18811 13.5997 3.11917 13.7911 3.10013C13.9826 3.08108 14.1758 3.11261 14.3512 3.19155C14.5267 3.27049 14.6785 3.39409 14.7912 3.55C14.904 3.70591 14.9739 3.88869 14.994 4.08007L15 4.19407V19.8061C15.0001 19.9985 14.9496 20.1876 14.8538 20.3545C14.7579 20.5213 14.6199 20.6601 14.4536 20.7569C14.2874 20.8538 14.0986 20.9053 13.9061 20.9064C13.7137 20.9075 13.5244 20.8581 13.357 20.7631L13.261 20.7011L6.68 16.0001H4C3.49542 16.0002 3.00943 15.8097 2.63945 15.4666C2.26947 15.1235 2.04284 14.6532 2.005 14.1501L2 14.0001V10.0001C1.99984 9.49549 2.19041 9.0095 2.5335 8.63952C2.87659 8.26954 3.34684 8.04291 3.85 8.00507L4 8.00007H6.68L13.26 3.30007ZM19.667 6.78307C20.4017 7.43903 20.9894 8.24294 21.3915 9.14206C21.7935 10.0412 22.0009 11.0152 22 12.0001C22.0009 12.985 21.7935 13.959 21.3915 14.8581C20.9894 15.7572 20.4017 16.5611 19.667 17.2171C19.5694 17.3061 19.4551 17.3749 19.3308 17.4195C19.2064 17.4641 19.0745 17.4837 18.9426 17.477C18.8106 17.4703 18.6813 17.4376 18.5621 17.3806C18.4429 17.3237 18.3362 17.2437 18.2481 17.1453C18.1599 17.0469 18.0922 16.932 18.0487 16.8072C18.0053 16.6825 17.987 16.5503 17.9949 16.4185C18.0028 16.2866 18.0367 16.1576 18.0948 16.0389C18.1528 15.9203 18.2338 15.8143 18.333 15.7271C18.8582 15.2587 19.2782 14.6844 19.5656 14.0421C19.8529 13.3997 20.0009 12.7038 20 12.0001C20 10.5201 19.358 9.19007 18.333 8.27307C18.2338 8.18587 18.1528 8.07987 18.0948 7.9612C18.0367 7.84253 18.0028 7.71354 17.9949 7.58167C17.987 7.4498 18.0053 7.31768 18.0487 7.19293C18.0922 7.06818 18.1599 6.95328 18.2481 6.85486C18.3362 6.75644 18.4429 6.67645 18.5621 6.61952C18.6813 6.56259 18.8106 6.52984 18.9426 6.52316C19.0745 6.51649 19.2064 6.53602 19.3308 6.58063C19.4551 6.62524 19.5694 6.69405 19.667 6.78307ZM17.667 9.01907C18.0866 9.39381 18.4223 9.85302 18.652 10.3666C18.8818 10.8801 19.0003 11.4365 19 11.9991C19.0007 12.562 18.8823 13.1187 18.6525 13.6327C18.4228 14.1466 18.0869 14.6061 17.667 14.9811C17.4774 15.1495 17.2308 15.2396 16.9773 15.233C16.7237 15.2265 16.4821 15.1239 16.3014 14.946C16.1206 14.768 16.0143 14.5281 16.0038 14.2747C15.9933 14.0212 16.0796 13.7733 16.245 13.5811L16.333 13.4911C16.743 13.1231 17 12.5921 17 12.0001C17.0012 11.488 16.8049 10.9951 16.452 10.6241L16.333 10.5091C16.2338 10.4219 16.1528 10.3159 16.0948 10.1972C16.0367 10.0785 16.0028 9.94954 15.9949 9.81767C15.987 9.6858 16.0053 9.55368 16.0487 9.42893C16.0922 9.30418 16.1599 9.18928 16.2481 9.09086C16.3362 8.99244 16.4429 8.91245 16.5621 8.85552C16.6813 8.79859 16.8106 8.76584 16.9426 8.75916C17.0745 8.75249 17.2064 8.77202 17.3308 8.81663C17.4551 8.86124 17.5694 8.93005 17.667 9.01907Z" fill="#BAA8ED"/>
</g>
<defs>
<clipPath id="clip0_102_70">
<rect width="24" height="24" fill="white"/>
</clipPath>
</defs>
</svg>
