<svg width="13" height="14" viewBox="0 0 13 14" fill="none" xmlns="http://www.w3.org/2000/svg">
<path d="M0.529968 1.88889C0.529975 1.7014 0.581556 1.51752 0.679068 1.35736C0.776581 1.1972 0.91627 1.06694 1.08286 0.980816C1.24944 0.894694 1.43651 0.85603 1.6236 0.869053C1.81069 0.882077 1.99059 0.946287 2.14363 1.05466L9.30183 6.12856C9.43479 6.22256 9.54339 6.34695 9.61856 6.49138C9.69373 6.63581 9.73332 6.7961 9.73402 6.95891C9.73472 7.12172 9.69652 7.28235 9.62259 7.42742C9.54866 7.57249 9.44114 7.69781 9.30898 7.79295L2.15079 12.9425C1.99808 13.0526 1.81792 13.1185 1.63018 13.1327C1.44243 13.147 1.25439 13.1092 1.08677 13.0235C0.919146 12.9377 0.778459 12.8074 0.680213 12.6468C0.581966 12.4862 0.529975 12.3016 0.529968 12.1134V1.88889ZM12.8012 1.37568C12.8012 1.2401 12.7473 1.11008 12.6514 1.01422C12.5555 0.918358 12.4255 0.864502 12.2899 0.864502C12.1543 0.864502 12.0242 0.918358 11.9283 1.01422C11.8324 1.11008 11.7786 1.2401 11.7786 1.37568V12.6215C11.7786 12.7571 11.8324 12.8871 11.9283 12.9829C12.0242 13.0788 12.1543 13.1327 12.2899 13.1327C12.4255 13.1327 12.5555 13.0788 12.6514 12.9829C12.7473 12.8871 12.8012 12.7571 12.8012 12.6215V1.37568Z" fill="#BAA8ED"/>
</svg>
