<svg width="42" height="42" viewBox="0 0 42 42" fill="none" xmlns="http://www.w3.org/2000/svg">
<rect width="42" height="42" rx="21" fill="#9B6CF1"/>
<path d="M16.9149 13.082L29.699 20.4791C29.7906 20.5323 29.8666 20.6083 29.9194 20.6997C29.9722 20.791 30 20.8945 30 20.9998C30 21.1051 29.9722 21.2085 29.9194 21.2999C29.8666 21.3912 29.7906 21.4673 29.699 21.5205L16.9149 28.9175C16.8224 28.971 16.7174 28.9994 16.6104 28.9998C16.5033 29.0001 16.3981 28.9725 16.3053 28.9196C16.2125 28.8667 16.1354 28.7905 16.0818 28.6986C16.0282 28.6067 16 28.5024 16 28.3962V13.6021C16.0002 13.496 16.0285 13.3919 16.0822 13.3002C16.1359 13.2085 16.213 13.1324 16.3058 13.0797C16.3986 13.0269 16.5037 12.9994 16.6107 12.9998C16.7176 13.0002 16.8225 13.0286 16.9149 13.082Z" fill="white"/>
</svg>
