<svg width="24" height="24" viewBox="0 0 24 24" fill="none" xmlns="http://www.w3.org/2000/svg">
<path d="M2.625 6C2.625 5.70163 2.74353 5.41548 2.9545 5.2045C3.16548 4.99353 3.45163 4.875 3.75 4.875H20.25C20.5484 4.875 20.8345 4.99353 21.0455 5.2045C21.2565 5.41548 21.375 5.70163 21.375 6C21.375 6.29837 21.2565 6.58452 21.0455 6.7955C20.8345 7.00647 20.5484 7.125 20.25 7.125H3.75C3.45163 7.125 3.16548 7.00647 2.9545 6.7955C2.74353 6.58452 2.625 6.29837 2.625 6ZM3.75 13.125H14.625C14.9234 13.125 15.2095 13.0065 15.4205 12.7955C15.6315 12.5845 15.75 12.2984 15.75 12C15.75 11.7016 15.6315 11.4155 15.4205 11.2045C15.2095 10.9935 14.9234 10.875 14.625 10.875H3.75C3.45163 10.875 3.16548 10.9935 2.9545 11.2045C2.74353 11.4155 2.625 11.7016 2.625 12C2.625 12.2984 2.74353 12.5845 2.9545 12.7955C3.16548 13.0065 3.45163 13.125 3.75 13.125ZM10.125 16.875H3.75C3.45163 16.875 3.16548 16.9935 2.9545 17.2045C2.74353 17.4155 2.625 17.7016 2.625 18C2.625 18.2984 2.74353 18.5845 2.9545 18.7955C3.16548 19.0065 3.45163 19.125 3.75 19.125H10.125C10.4234 19.125 10.7095 19.0065 10.9205 18.7955C11.1315 18.5845 11.25 18.2984 11.25 18C11.25 17.7016 11.1315 17.4155 10.9205 17.2045C10.7095 16.9935 10.4234 16.875 10.125 16.875ZM23.5772 11.9484C23.4906 12.2334 23.2945 12.4724 23.0319 12.613C22.7693 12.7535 22.4618 12.7843 22.1766 12.6984L19.875 12.0122V18C19.875 18.7164 19.6471 19.4143 19.2241 19.9926C18.8012 20.5708 18.2052 20.9995 17.5224 21.2165C16.8396 21.4336 16.1055 21.4277 15.4263 21.1998C14.7471 20.9718 14.158 20.5337 13.7444 19.9487C13.3307 19.3637 13.1139 18.6623 13.1254 17.946C13.1369 17.2296 13.3761 16.5355 13.8083 15.9641C14.2404 15.3927 14.8433 14.9737 15.5294 14.7677C16.2156 14.5616 16.9495 14.5793 17.625 14.8181V10.5C17.6251 10.3246 17.6661 10.1517 17.7449 9.99502C17.8236 9.83834 17.9379 9.70224 18.0787 9.59759C18.2194 9.49294 18.3826 9.42263 18.5553 9.39229C18.7281 9.36194 18.9055 9.3724 19.0734 9.42281L22.8234 10.5478C23.1091 10.6337 23.3489 10.8294 23.4903 11.0921C23.6316 11.3547 23.6629 11.6628 23.5772 11.9484ZM17.625 18C17.625 17.7775 17.559 17.56 17.4354 17.375C17.3118 17.19 17.1361 17.0458 16.9305 16.9606C16.725 16.8755 16.4988 16.8532 16.2805 16.8966C16.0623 16.94 15.8618 17.0472 15.7045 17.2045C15.5472 17.3618 15.44 17.5623 15.3966 17.7805C15.3532 17.9988 15.3755 18.225 15.4606 18.4305C15.5458 18.6361 15.69 18.8118 15.875 18.9354C16.06 19.059 16.2775 19.125 16.5 19.125C16.7984 19.125 17.0845 19.0065 17.2955 18.7955C17.5065 18.5845 17.625 18.2984 17.625 18Z" fill="#BAA8ED"/>
</svg>
