<svg width="13" height="14" viewBox="0 0 13 14" fill="none" xmlns="http://www.w3.org/2000/svg">
<path d="M12.5299 1.88889C12.5299 1.7014 12.4784 1.51752 12.3808 1.35736C12.2833 1.1972 12.1436 1.06694 11.9771 0.980816C11.8105 0.894694 11.6234 0.85603 11.4363 0.869053C11.2492 0.882077 11.0693 0.946287 10.9163 1.05466L3.75808 6.12856C3.62511 6.22256 3.51652 6.34695 3.44135 6.49138C3.36617 6.63581 3.32659 6.7961 3.32589 6.95891C3.32519 7.12172 3.36339 7.28235 3.43732 7.42742C3.51125 7.57249 3.61877 7.69781 3.75092 7.79295L10.9091 12.9425C11.0618 13.0526 11.242 13.1185 11.4297 13.1327C11.6175 13.147 11.8055 13.1092 11.9731 13.0235C12.1408 12.9377 12.2814 12.8074 12.3797 12.6468C12.4779 12.4862 12.5299 12.3016 12.5299 12.1134V1.88889ZM0.258745 1.37568C0.258745 1.2401 0.312614 1.11008 0.408502 1.01422C0.504389 0.918358 0.63444 0.864502 0.770045 0.864502C0.90565 0.864502 1.0357 0.918358 1.13159 1.01422C1.22748 1.11008 1.28135 1.2401 1.28135 1.37568V12.6215C1.28135 12.7571 1.22748 12.8871 1.13159 12.9829C1.0357 13.0788 0.90565 13.1327 0.770045 13.1327C0.63444 13.1327 0.504389 13.0788 0.408502 12.9829C0.312614 12.8871 0.258745 12.7571 0.258745 12.6215V1.37568Z" fill="#BAA8ED"/>
</svg>
