<svg width="32" height="32" viewBox="0 0 32 32" fill="none" xmlns="http://www.w3.org/2000/svg">
<g clip-path="url(#clip0_102_273)">
<path fill-rule="evenodd" clip-rule="evenodd" d="M14 2.66663C12.1928 2.66678 10.4118 3.09911 8.80565 3.92755C7.19951 4.75599 5.81476 5.95652 4.76695 7.42897C3.71914 8.90141 3.03865 10.6031 2.78225 12.392C2.52585 14.1809 2.70097 16.0053 3.29301 17.7127C3.88505 19.4202 4.87683 20.9614 6.18562 22.2076C7.49441 23.4538 9.08225 24.369 10.8167 24.8768C12.5511 25.3845 14.3818 25.4702 16.156 25.1265C17.9302 24.7829 19.5966 24.0199 21.016 22.9013L25.8853 27.7706C26.1368 28.0135 26.4736 28.1479 26.8232 28.1449C27.1728 28.1418 27.5072 28.0016 27.7544 27.7544C28.0016 27.5072 28.1418 27.1728 28.1449 26.8232C28.1479 26.4736 28.0135 26.1368 27.7706 25.8853L22.9013 21.016C24.2186 19.3448 25.0389 17.3365 25.2681 15.2209C25.4974 13.1054 25.1264 10.968 24.1976 9.05342C23.2688 7.13885 21.8198 5.52443 20.0164 4.39493C18.2129 3.26543 16.1279 2.66648 14 2.66663ZM5.33331 14C5.33331 11.7014 6.2464 9.49702 7.87171 7.8717C9.49703 6.24639 11.7014 5.33329 14 5.33329C16.2985 5.33329 18.5029 6.24639 20.1282 7.8717C21.7536 9.49702 22.6666 11.7014 22.6666 14C22.6666 16.2985 21.7536 18.5029 20.1282 20.1282C18.5029 21.7535 16.2985 22.6666 14 22.6666C11.7014 22.6666 9.49703 21.7535 7.87171 20.1282C6.2464 18.5029 5.33331 16.2985 5.33331 14Z" fill="#BBB1FC"/>
</g>
<defs>
<clipPath id="clip0_102_273">
<rect width="32" height="32" fill="white"/>
</clipPath>
</defs>
</svg>
